<?xml version="1.0" encoding="utf-8"?>
<!-- Generator: Adobe Illustrator 22.1.0, SVG Export Plug-In . SVG Version: 6.00 Build 0)  -->
<svg version="1.1" id="Layer_1" xmlns="http://www.w3.org/2000/svg" xmlns:xlink="http://www.w3.org/1999/xlink" x="0px" y="0px"
	 viewBox="0 0 264.6 162.4" style="enable-background:new 0 0 264.6 162.4;" xml:space="preserve">
<style type="text/css">
	.st0{fill:#2474A9;}
	.st1{fill:#585A5C;}
</style>
<g>
	<g>
		<g>
			<g>
				<path class="st0" d="M101.2,146.7v-7.2h-8.8v7.2H89v-17.8h3.4v7.5h8.8v-7.5h3.3v17.8H101.2z"/>
				<path class="st0" d="M54.3,128.9v14.7h9.2v3.1H51v-17.8H54.3z"/>
				<path class="st0" d="M80.5,132.8c-0.6-1-2.3-2-4.2-2c-2.5,0-3.7,1-3.7,2.4c0,1.6,1.8,2,4,2.2c3.7,0.5,7.2,1.4,7.2,5.7
					c0,4-3.5,5.7-7.5,5.7c-3.6,0-6.4-1.1-7.8-4.4l2.8-1.5c0.8,2,2.8,2.8,5,2.8c2.1,0,4.1-0.7,4.1-2.7c0-1.7-1.8-2.4-4.1-2.6
					c-3.6-0.4-7-1.4-7-5.4c0-3.7,3.6-5.2,6.9-5.2c2.8,0,5.6,0.8,7,3.5L80.5,132.8z"/>
				<path class="st0" d="M20.3,146.7h-2.8l-2.2-5.6l-1.9-5.6l-1.9,5.7l-2.2,5.5H6.5L0,128.9h3.8L8,141.7l4.3-12.8h2.2l4.5,12.8
					l4.1-12.8h3.8L20.3,146.7z"/>
				<polygon class="st0" points="42,146.7 45.7,146.7 37.7,128.9 34.1,128.9 26.1,146.7 29.7,146.7 35.9,132.7 				"/>
			</g>
			<g>
				<path class="st0" d="M262.1,132.9c-1.2-1.1-3-1.8-4.5-1.8c-3.8,0-6.1,2.9-6.1,6.6c0,2.9,1.7,6,6.1,6c1.4,0,2.6-0.3,4-1.4v-3.2
					H257v-3h7.6v7.5c-1.8,2-4,3.2-7.1,3.2c-6.7,0-9.4-4.4-9.4-9.1c0-5,3.1-9.6,9.4-9.6c2.4,0,4.8,0.9,6.6,2.7L262.1,132.9z"/>
				<path class="st0" d="M217.3,146.7v-17.8h3.3v17.8H217.3z"/>
				<path class="st0" d="M165.4,146.7v-17.8h3.3v17.8H165.4z"/>
				<path class="st0" d="M186.2,128.9h3.4v17.8h-2.1l0,0l-9.4-12v12h-3.4v-17.8h2.7l8.7,11v-11H186.2z"/>
				<path class="st0" d="M238.6,128.9h3.4v17.8h-2.1l0,0l-9.4-12v12h-3.4v-17.8h2.7l8.7,11L238.6,128.9L238.6,128.9z"/>
				<path class="st0" d="M201.4,132h-5.6v-3.1c5.1,0,9.5,0,14.7,0v3.1h-5.6v14.8h-3.4V132H201.4z"/>
				<polygon class="st0" points="156.3,146.7 159.9,146.7 151.9,128.9 148.3,128.9 140.3,146.7 143.9,146.7 150.1,132.7 				"/>
				<path class="st0" d="M132.6,128.9c-2.8,0-5.6,0-8.4,0v3.2h3.4h1.5h3.5c4.3,0,4.3,6.3,0,6.3h-3.7h-1.3h-3.4v8.3h3.4v-5.2h5
					C141.3,141.5,141.3,128.9,132.6,128.9z"/>
			</g>
		</g>
		<g>
			<path class="st0" d="M177.3,95.7c-2.3,2.3-5.8,3.6-8.9,3.6c-7.4,0-11-4.3-11.9-9.2c-0.5,0.9-1.1,1.7-1.8,2.4
				c-1,1.1-2.2,2-3.6,2.7c2.5,5.9,8,10.4,17.2,10.4c5.1,0,9.8-1.7,13.5-5.3L177.3,95.7z"/>
			<path class="st0" d="M133.4,76.4h3h7.1c2.7,0,4.6,1.3,5.5,3c0.8-2.3,2.1-4.3,3.6-6.1c-2.2-2-5.2-3.3-9.1-3.3
				c-5.6,0-11.2,0.1-16.7,0.1h-4.1l-8.1,25.6l-8.9-25.6h-4.4l-8.6,25.6l-8.4-25.6h-7.5l13,35.5h5.7l4.3-11.1l3.7-11.3l3.8,11.2
				l4.4,11.2h5.7l10.5-29.2L133.4,76.4L133.4,76.4z"/>
			<path class="st0" d="M156.3,85L156.3,85c0.8-5.2,4.6-10,12.1-10c3.1,0,6.2,1.1,8.6,3.3l4.5-4.3c-3.7-3.6-8.2-5.4-13-5.4
				c-11.1,0-17.1,7.1-18.5,15l0,0c-0.3,2.9-2.4,5.5-6.3,5.5h-7.5h-2.6h-6.7v16.6h6.7V95.2h10C151.1,95.2,155.4,90.4,156.3,85z"/>
		</g>
		<g>
			<g>
				<g>
					<polygon class="st0" points="160.6,56.2 164,59.6 178.2,45.4 174.9,42.1 					"/>
					<path class="st0" d="M166,61.3l4.6,4.6c0,0,4.8,4.8,10.4-1.1c0.9,0.5,1.6,0.8,2.5,2.7s7.3,14.9,13,9.8c0.8-1.2,2-3.9-2-7.1
						s-4.6-3.3-7.8-5.3c-2.2-1.3-3-2.1-2.4-3.1s5.9-4.6,1.3-9.1c-3.9-3.9-5.5-5.5-5.5-5.5L166,61.3z"/>
				</g>
				<path class="st0" d="M162.7,50l-27-27l-4.1-4.1l-4.1,4.1L88.4,62.1c-1.1,1.1-1.1,3,0,4.1s3,1.1,4.1,0l39.1-39.1l27,27L162.7,50z
					"/>
				<path class="st0" d="M167.7,44.9l-32.1-32.1l-4.1-4.1l-4.1,4.1L90.7,49.5c-1.1,1.1-1.1,3,0,4.1s3,1.1,4.1,0l36.7-36.7L163.6,49
					L167.7,44.9z"/>
				<path class="st0" d="M172.8,39.9L133.7,0.8c-1.1-1.1-3-1.1-4.1,0L67.2,63.2c-1.1,1.1-1.1,3,0,4.1c1.1,1.1,3,1.1,4.1,0l60.4-60.4
					L168.8,44L172.8,39.9z"/>
			</g>
		</g>
	</g>
	<g>
		<g>
			<g>
				<g>
					<path class="st1" d="M65.9,161.1c-1.1,1-2.4,1.5-3.9,1.5c-3.8,0-5.4-2.6-5.4-5.3s1.7-5.4,5.4-5.4c1.4,0,2.7,0.5,3.8,1.6
						l-1.3,1.2c-0.7-0.7-1.6-1-2.5-1c-2.5,0-3.5,1.8-3.5,3.5c0,1.7,1,3.5,3.5,3.5c0.9,0,1.9-0.4,2.6-1L65.9,161.1z"/>
					<path class="st1" d="M81.1,157.4c0,2.6-1.7,5.3-5.2,5.3c-3.6,0-5.3-2.6-5.3-5.3c0-2.7,1.7-5.4,5.3-5.4
						C79.4,152,81.2,154.7,81.1,157.4z M72.5,157.4c0,1.7,0.9,3.5,3.4,3.5c2.4,0,3.3-1.8,3.3-3.5c0-1.7-0.9-3.7-3.3-3.7
						C73.5,153.7,72.5,155.7,72.5,157.4z"/>
					<path class="st1" d="M93.4,152.2h1.9v10.2h-1.2l0,0l-5.4-6.9v6.9h-1.9v-10.2h1.6l5,6.3L93.4,152.2L93.4,152.2z"/>
					<path class="st1" d="M103.8,153.9h-3.2v-1.8c3,0,5.4,0,8.4,0v1.8h-3.2v8.5h-1.9v-8.5H103.8z"/>
					<path class="st1" d="M123.3,162.4H121l-3-3.4h-1.9v3.4h-1.9v-10.2c1.6,0,3.2,0,4.9,0c2.4,0,3.7,1.6,3.7,3.4
						c0,1.4-0.6,2.8-2.6,3.2l3.1,3.5V162.4z M116.2,154v3.3h2.9c1.2,0,1.8-0.8,1.8-1.6s-0.5-1.6-1.8-1.6L116.2,154L116.2,154z"/>
					<path class="st1" d="M135.4,160.5h-5.3l-0.9,1.9h-2.1l4.6-10.2h2.1l4.6,10.2h-2.1L135.4,160.5z M132.8,154.3l-1.9,4.4h3.8
						L132.8,154.3z"/>
					<path class="st1" d="M151.8,161.1c-1.1,1-2.4,1.5-3.9,1.5c-3.8,0-5.4-2.6-5.4-5.3s1.7-5.4,5.4-5.4c1.4,0,2.7,0.5,3.8,1.6
						l-1.3,1.2c-0.7-0.7-1.6-1-2.5-1c-2.5,0-3.5,1.8-3.5,3.5c0,1.7,1,3.5,3.5,3.5c0.9,0,1.9-0.4,2.6-1L151.8,161.1z"/>
					<path class="st1" d="M159.4,153.9h-3.2v-1.8c3,0,5.4,0,8.4,0v1.8h-3.2v8.5h-1.9v-8.5H159.4z"/>
					<path class="st1" d="M179.9,157.4c0,2.6-1.7,5.3-5.2,5.3c-3.6,0-5.3-2.6-5.3-5.3c0-2.7,1.7-5.4,5.3-5.4
						C178.2,152,179.9,154.7,179.9,157.4z M171.3,157.4c0,1.7,0.9,3.5,3.4,3.5c2.4,0,3.3-1.8,3.3-3.5c0-1.7-0.9-3.7-3.3-3.7
						C172.3,153.7,171.3,155.7,171.3,157.4z"/>
					<path class="st1" d="M194.5,162.4h-2.3l-3-3.4h-1.9v3.4h-1.9v-10.2c1.6,0,3.2,0,4.9,0c2.4,0,3.7,1.6,3.7,3.4
						c0,1.4-0.6,2.8-2.6,3.2l3.1,3.5V162.4z M187.4,154v3.3h2.9c1.2,0,1.8-0.8,1.8-1.6s-0.5-1.6-1.8-1.6L187.4,154L187.4,154z"/>
					<path class="st1" d="M206.1,154.7c-0.4-0.6-1.3-1.1-2.4-1.1c-1.4,0-2.1,0.6-2.1,1.4c0,0.9,1.1,1.1,2.3,1.3
						c2.1,0.3,4.1,0.8,4.1,3.3c0,2.3-2,3.3-4.3,3.3c-2.1,0-3.7-0.6-4.5-2.5l1.6-0.8c0.5,1.1,1.6,1.6,2.9,1.6c1.2,0,2.4-0.4,2.4-1.5
						c0-1-1-1.4-2.4-1.5c-2.1-0.2-4-0.8-4-3.1c0-2.1,2.1-3,4-3c1.6,0,3.2,0.5,4,2L206.1,154.7z"/>
				</g>
			</g>
			<rect x="0" y="156.8" class="st1" width="49.8" height="1.2"/>
			<rect x="214.8" y="156.8" class="st1" width="49.8" height="1.2"/>
		</g>
		<g>
			<polygon class="st1" points="103.9,60.4 131.6,32.7 159.3,60.4 162.5,60.4 131.6,29.5 100.7,60.4 			"/>
			<g>
				<rect x="123.3" y="44.2" class="st1" width="7" height="7"/>
				<rect x="132.8" y="44.2" class="st1" width="7" height="7"/>
				<rect x="123.3" y="53.3" class="st1" width="7" height="7"/>
				<rect x="132.8" y="53.3" class="st1" width="7" height="7"/>
			</g>
		</g>
		<path class="st1" d="M194.5,115.3L194.5,115.3c0-2.1-1.7-3.7-3.7-3.7H72.9c-2.1,0-3.7,1.7-3.7,3.7l0,0l0,0l0,0
			c0,2.1,1.7,3.7,3.7,3.7h117.8C192.8,119.1,194.5,117.4,194.5,115.3L194.5,115.3"/>
	</g>
</g>
</svg>
